<?xml version="1.0" encoding="UTF-8"?>
<svg id="Layer_1" data-name="Layer 1" xmlns="http://www.w3.org/2000/svg" viewBox="0 0 1832.1579 600">
  <defs>
    <style>
      .cls-1 {
        fill: none;
      }
    </style>
  </defs>
  <path d="M325.9746,411.4325c-6.4032,0-11.2065-1.7017-14.4099-5.1197-3.1998-3.4107-4.8033-9.6066-4.8033-18.5733v-124.239c0-45.6842-12.4864-80.7946-37.463-105.353-24.9765-24.5438-61.8032-36.8266-110.4726-36.8266-42.2699,0-76.6422,9.7157-103.1095,29.1399-26.4782,19.4314-43.128,47.2914-49.953,83.5799l83.2563,3.8397c4.2615-17.0752,12.0574-30.2016,23.373-39.3865,11.3083-9.1776,26.7909-13.7664,46.4333-13.7664,21.7731,0,38.2047,6.0796,49.3131,18.2461,11.0974,12.1737,16.6498,30.4271,16.6498,54.76l-113.3561,22.4131c-37.572,7.265-65.5411,19.2133-83.8962,35.8667C9.1776,332.6595,0,355.7198,0,385.1797s10.8865,52.4111,32.6633,68.8463c21.7731,16.4353,50.593,24.6529,86.4561,24.6529,21.344,0,40.5573-3.1998,57.6362-9.6066,17.0716-6.4068,31.2706-15.4681,42.5899-27.22,7.1563-7.4281,12.5487-15.5721,16.5462-24.2852,1.4199,10.013,3.8161,18.6651,7.4704,25.5651,5.9741,11.3229,14.5081,19.2133,25.6165,23.7002,11.0974,4.4797,23.693,6.7268,37.7829,6.7268,5.9741,0,11.8501-.2254,17.6134-.6472,5.7633-.4291,9.9266-1.069,12.4864-1.9199v-59.5597h-10.8865ZM224.7887,332.6595c0,17.5116-3.6325,32.6669-10.8865,45.4733-7.265,12.8064-17.5116,22.8421-30.7398,30.0998-13.2391,7.265-29.0417,10.8865-47.3932,10.8865-16.2316,0-28.7181-3.6216-37.463-10.8865-8.7558-7.2577-13.13-17.5043-13.13-30.7398,0-11.9483,3.9416-21.664,11.8465-29.1399,7.8977-7.4686,21.0241-13.1264,39.3865-16.9734l88.3796-17.9261v19.206Z"/>
  <path d="M574.3872,192.4071v-63.3994h-90.2994V48.9548h-81.9727v80.0528h-53.7964v63.3994h53.7964v180.5989c0,33.7359,8.0031,58.5052,24.0129,74.2932,16.0135,15.8026,41.0882,23.693,75.2495,23.693h73.0097v-63.3994h-48.0332c-14.519,0-25.1947-3.0907-32.0197-9.2867-6.8359-6.1814-10.2466-17.1843-10.2466-32.9796v-172.9194h90.2994Z"/>
  <g>
    <path class="cls-1" d="M1252.2002,348.353c-7.9049,7.4759-11.8465,17.1916-11.8465,29.1399,0,13.2355,4.3743,23.4821,13.13,30.7398,8.7449,7.265,21.2313,10.8865,37.463,10.8865,18.3515,0,34.1541-3.6216,47.3932-10.8865,13.2282-7.2577,23.4748-17.2934,30.7398-30.0998,7.2541-12.8064,10.8865-27.9618,10.8865-45.4733v-19.206l-88.3796,17.9261c-18.3624,3.847-31.4888,9.5048-39.3865,16.9734Z"/>
    <path d="M1481.1522,411.4325c-6.4032,0-11.2065-1.7017-14.4099-5.1197-3.1998-3.4107-4.8033-9.6066-4.8033-18.5733v-124.239c0-45.6842-12.4864-80.7946-37.463-105.353-24.9765-24.5438-61.8032-36.8266-110.4726-36.8266-42.2699,0-76.6422,9.7157-103.1095,29.1399-26.4782,19.4314-43.128,47.2914-49.953,83.5799l83.2563,3.8397c4.2615-17.0752,12.0574-30.2016,23.373-39.3865,11.3083-9.1776,26.7909-13.7664,46.4333-13.7664,21.7731,0,38.2047,6.0796,49.3131,18.2461,11.0974,12.1737,16.6498,30.4271,16.6498,54.76l-113.3561,22.4131c-37.572,7.265-65.5411,19.2133-83.8962,35.8667-18.3588,16.6462-27.5363,39.7064-27.5363,69.1663s10.8865,52.4111,32.6633,68.8463c21.7731,16.4353,50.593,24.6529,86.4561,24.6529,21.344,0,40.5573-3.1998,57.6362-9.6066,17.0716-6.4068,31.2706-15.4681,42.5899-27.22,7.1563-7.4281,12.5487-15.5721,16.5462-24.2852,1.4199,10.013,3.8161,18.6651,7.4704,25.5651,5.9741,11.3229,14.5081,19.2133,25.6165,23.7002,11.0974,4.4797,23.693,6.7268,37.7829,6.7268,5.9741,0,11.8501-.2254,17.6134-.6472,5.7633-.4291,9.9266-1.069,12.4864-1.9199v-59.5597h-10.8865ZM1379.9662,332.6595c0,17.5116-3.6325,32.6669-10.8865,45.4733-7.265,12.8064-17.5116,22.8421-30.7398,30.0998-13.2391,7.265-29.0417,10.8865-47.3932,10.8865-16.2316,0-28.7181-3.6216-37.463-10.8865-8.7558-7.2577-13.13-17.5043-13.13-30.7398,0-11.9483,3.9416-21.664,11.8465-29.1399,7.8977-7.4686,21.0241-13.1264,39.3865-16.9734l88.3796-17.9261v19.206Z"/>
  </g>
  <path d="M1818.7078,183.7677c-8.9667-19.4242-22.0931-34.6886-39.3865-45.7933-17.2898-11.0974-38.5356-16.6534-63.7194-16.6534-18.3624,0-35.2231,3.4252-50.593,10.2466-15.3735,6.8359-28.4017,17.5116-39.0665,32.027-2.5644,3.4852-4.9083,7.255-7.0468,11.2897V0h-600v124.918c-9.9202-2.3826-20.5854-3.597-32.0233-3.597-17.9297,0-34.0523,3.6361-48.3495,10.8865-14.3118,7.265-26.1583,17.6134-35.5431,31.0597-5.8096,8.3185-10.427,18.0565-14.1127,28.9035-6.0296-18.6774-15.604-34.0932-28.7972-46.1896-17.9297-16.4353-41.4154-24.6602-70.4462-24.6602-16.6498,0-31.9215,3.527-45.7897,10.5666-13.8791,7.0468-25.6165,17.0825-35.2231,30.0998-5.3637,7.2763-9.7325,15.4699-13.2991,24.4038l-1.7508-57.3834h-74.2896v341.9845h81.9727v-195.9651c0-18.3551,2.6616-34.0414,8.0067-47.0732,5.3342-13.0173,12.5883-22.9439,21.7731-29.7798,9.1776-6.8214,20.3841-10.2466,33.6232-10.2466,20.915,0,35.6449,7.4759,44.1898,22.4131,8.534,14.9517,12.8064,36.5067,12.8064,64.6866v195.9651h76.2131v-195.9651c0-18.3551,2.4507-34.0414,7.3631-47.0732,4.9051-13.0173,12.0574-22.9439,21.4531-29.7798,9.3885-6.8214,20.7041-10.2466,33.9432-10.2466,19.6351,0,34.2632,7.0468,43.8698,21.1331,9.6066,14.0863,14.4099,35.2267,14.4099,63.3994v327.54h600v-322.4131c0-29.0308,6.505-51.2329,19.5332-66.6065,13.021-15.3662,30.4198-23.053,52.1965-23.053,14.5081,0,26.1473,3.5198,34.9031,10.5666,8.7449,7.0468,15.0499,17.1916,18.8896,30.4198,3.8434,13.2428,5.7669,29.4599,5.7669,48.6731v193.4053h81.9727v-219.6654c0-25.6128-4.4833-48.1277-13.45-67.5591ZM1536.923,518.0273h-436.0546V81.9727h436.0546v436.0546Z"/>
</svg>