<?xml version="1.0" encoding="UTF-8"?>
<svg id="Layer_1" data-name="Layer 1" xmlns="http://www.w3.org/2000/svg" viewBox="0 0 720 720">
  <defs>
    <style>
      .cls-1 {
        fill: none;
      }
    </style>
  </defs>
  <path d="M621.6327,0H0v720h720V0h-98.3673ZM621.6327,621.6327H98.3673V98.3673h523.2655v523.2655Z"/>
  <g>
    <path class="cls-1" d="M279.9653,418.0238c-9.4859,8.971-14.2158,20.6299-14.2158,34.9679,0,15.8826,5.2491,28.1785,15.756,36.8877,10.4938,8.718,25.4776,13.0639,44.9555,13.0639,22.0218,0,40.9849-4.3459,56.8718-13.0639,15.8739-8.7092,28.1698-20.7521,36.8877-36.1198,8.7049-15.3677,13.0639-33.5541,13.0639-54.568v-23.0472l-106.0555,21.5113c-22.0349,4.6164-37.7866,11.4058-47.2638,20.3681Z"/>
    <path d="M554.7077,493.7191c-7.6839,0-13.4478-2.042-17.2919-6.1436-3.8397-4.0928-5.764-11.528-5.764-22.288v-149.0868c0-54.8211-14.9837-96.9535-44.9555-126.4236-29.9718-29.4526-74.1638-44.192-132.5672-44.192-50.7239,0-91.9706,11.6589-123.7314,34.9679-31.7739,23.3177-51.7536,56.7497-59.9436,100.2959l99.9075,4.6077c5.1138-20.4903,14.4689-36.2419,28.0476-47.2638,13.57-11.0131,32.1491-16.5196,55.7199-16.5196,26.1277,0,45.8457,7.2955,59.1757,21.8953,13.3169,14.6085,19.9798,36.5125,19.9798,65.712l-136.0273,26.8957c-45.0864,8.718-78.6493,23.0559-100.6755,43.04-22.0305,19.9754-33.0436,47.6477-33.0436,82.9996s13.0639,62.8933,39.1959,82.6156c26.1277,19.7223,60.7116,29.5835,103.7473,29.5835,25.6128,0,48.6688-3.8397,69.1634-11.528,20.4859-7.6882,37.5248-18.5617,51.1079-32.664,8.5876-8.9138,15.0585-18.6866,19.8554-29.1422,1.7039,12.0156,4.5793,22.3981,8.9645,30.6781,7.169,13.5875,17.4097,23.0559,30.7398,28.4403,13.3169,5.3756,28.4316,8.0722,45.3395,8.0722,7.169,0,14.2201-.2705,21.136-.7767,6.9159-.5149,11.9119-1.2828,14.9837-2.3038v-71.4716h-13.0639ZM433.2846,399.1916c0,21.0139-4.359,39.2003-13.0639,54.568-8.718,15.3677-21.0139,27.4105-36.8877,36.1198-15.8869,8.718-34.85,13.0639-56.8718,13.0639-19.478,0-34.4617-4.3459-44.9555-13.0639-10.5069-8.7092-15.756-21.0051-15.756-36.8877,0-14.338,4.7299-25.9968,14.2158-34.9679,9.4772-8.9623,25.2289-15.7517,47.2638-20.3681l106.0555-21.5113v23.0472Z"/>
  </g>
</svg>