<?xml version="1.0" encoding="UTF-8"?>
<svg id="Layer_1" xmlns="http://www.w3.org/2000/svg" version="1.1" viewBox="0 0 720 720">
  <!-- Generator: Adobe Illustrator 30.1.0, SVG Export Plug-In . SVG Version: 2.1.1 Build 136)  -->
  <defs>
    <style>
      .st0 {
        fill: #fff;
      }

      .st1 {
        fill: none;
      }
    </style>
  </defs>
  <rect class="st0" width="720" height="720"/>
  <path d="M720,98.37V0H0v98.37h720Z"/>
  <g>
    <path class="st1" d="M280.47,418.02c-9.49,8.97-14.22,20.63-14.22,34.97,0,15.88,5.25,28.18,15.76,36.89,10.49,8.72,25.48,13.06,44.96,13.06,22.02,0,40.98-4.35,56.87-13.06,15.87-8.71,28.17-20.75,36.89-36.12,8.7-15.37,13.06-33.55,13.06-54.57v-23.05l-106.06,21.51c-22.03,4.62-37.79,11.41-47.26,20.37Z"/>
    <path d="M555.21,493.72c-7.68,0-13.45-2.04-17.29-6.14-3.84-4.09-5.76-11.53-5.76-22.29v-149.09c0-54.82-14.98-96.95-44.96-126.42-29.97-29.45-74.16-44.19-132.57-44.19-50.72,0-91.97,11.66-123.73,34.97-31.77,23.32-51.75,56.75-59.94,100.3l99.91,4.61c5.11-20.49,14.47-36.24,28.05-47.26,13.57-11.01,32.15-16.52,55.72-16.52,26.13,0,45.85,7.3,59.18,21.9,13.32,14.61,19.98,36.51,19.98,65.71l-136.03,26.9c-45.09,8.72-78.65,23.06-100.68,43.04-22.03,19.98-33.04,47.65-33.04,83s13.06,62.89,39.2,82.62c26.13,19.72,60.71,29.58,103.75,29.58,25.61,0,48.67-3.84,69.16-11.53,20.49-7.69,37.52-18.56,51.11-32.66,8.59-8.91,15.06-18.69,19.86-29.14,1.7,12.02,4.58,22.4,8.96,30.68,7.17,13.59,17.41,23.06,30.74,28.44,13.32,5.38,28.43,8.07,45.34,8.07,7.17,0,14.22-.27,21.14-.78,6.92-.51,11.91-1.28,14.98-2.3v-71.47h-13.06ZM433.78,399.19c0,21.01-4.36,39.2-13.06,54.57-8.72,15.37-21.01,27.41-36.89,36.12-15.89,8.72-34.85,13.06-56.87,13.06-19.48,0-34.46-4.35-44.96-13.06-10.51-8.71-15.76-21.01-15.76-36.89,0-14.34,4.73-26,14.22-34.97,9.48-8.96,25.23-15.75,47.26-20.37l106.06-21.51v23.05Z"/>
  </g>
  <path d="M621.63,154.81v466.82H98.37v-320.04c0-33.82-5.51-62.25-16.52-85.3-11.02-23.06-26.77-40.6-47.26-52.64-10.51-6.17-22.05-10.74-34.58-13.75v570.1h720V154.81h-98.37Z"/>
</svg>