<?xml version="1.0" encoding="UTF-8"?>
<svg xmlns="http://www.w3.org/2000/svg" viewBox="0 0 2000 800">
  <defs>
    <style>
      .st1 { fill: none; }
    </style>
  </defs>
  <path fill="#F5F5F5" d="M1916.08,181.97v-81.97H703.19v81.97h1212.89Z"/>
  <path fill="#F5F5F5" d="M409.9,511.43c-6.4,0-11.21-1.7-14.41-5.12-3.2-3.41-4.8-9.61-4.8-18.57v-124.24c0-45.68-12.49-80.79-37.46-105.35-24.98-24.54-61.8-36.83-110.47-36.83-42.27,0-76.64,9.72-103.11,29.14-26.48,19.43-43.13,47.29-49.95,83.58l83.26,3.84c4.26-17.08,12.06-30.2,23.37-39.39,11.31-9.18,26.79-13.77,46.43-13.77,21.77,0,38.2,6.08,49.31,18.25,11.1,12.17,16.65,30.43,16.65,54.76l-113.36,22.41c-37.57,7.26-65.54,19.21-83.9,35.87-18.36,16.65-27.54,39.71-27.54,69.17s10.89,52.41,32.66,68.85c21.77,16.44,50.59,24.65,86.46,24.65,21.34,0,40.56-3.2,57.64-9.61,17.07-6.41,31.27-15.47,42.59-27.22,7.16-7.43,12.55-15.57,16.55-24.29,1.42,10.01,3.82,18.67,7.47,25.57,5.97,11.32,14.51,19.21,25.62,23.7,11.1,4.48,23.69,6.73,37.78,6.73,5.97,0,11.85-.23,17.61-.65,5.76-.43,9.93-1.07,12.49-1.92v-59.56h-10.89ZM308.71,432.66c0,17.51-3.63,32.67-10.89,45.47-7.26,12.81-17.51,22.84-30.74,30.1-13.24,7.26-29.04,10.89-47.39,10.89-16.23,0-28.72-3.62-37.46-10.89-8.76-7.26-13.13-17.5-13.13-30.74,0-11.95,3.94-21.66,11.85-29.14,7.9-7.47,21.02-13.13,39.39-16.97l88.38-17.93v19.21Z"/>
  <path fill="#F5F5F5" d="M658.31,292.41v-63.4h-90.3v-80.05h-81.97v80.05h-53.8v63.4h53.8v180.6c0,33.74,8,58.51,24.01,74.29,16.01,15.8,41.09,23.69,75.25,23.69h73.01v-63.4h-48.03c-14.52,0-25.19-3.09-32.02-9.29-6.84-6.18-10.25-17.18-10.25-32.98v-172.92h90.3Z"/>
  <g>
    <path class="st1" d="M1336.12,448.35c-7.9,7.48-11.85,17.19-11.85,29.14,0,13.24,4.37,23.48,13.13,30.74,8.74,7.26,21.23,10.89,37.46,10.89,18.35,0,34.15-3.62,47.39-10.89,13.23-7.26,23.47-17.29,30.74-30.1,7.25-12.81,10.89-27.96,10.89-45.47v-19.21l-88.38,17.93c-18.36,3.85-31.49,9.5-39.39,16.97Z"/>
    <path fill="#F5F5F5" d="M1565.07,511.43c-6.4,0-11.21-1.7-14.41-5.12-3.2-3.41-4.8-9.61-4.8-18.57v-124.24c0-45.68-12.49-80.79-37.46-105.35-24.98-24.54-61.8-36.83-110.47-36.83-42.27,0-76.64,9.72-103.11,29.14-26.48,19.43-43.13,47.29-49.95,83.58l83.26,3.84c4.26-17.08,12.06-30.2,23.37-39.39,11.31-9.18,26.79-13.77,46.43-13.77,21.77,0,38.2,6.08,49.31,18.25,11.1,12.17,16.65,30.43,16.65,54.76l-113.36,22.41c-37.57,7.26-65.54,19.21-83.9,35.87-18.36,16.65-27.54,39.71-27.54,69.17s10.89,52.41,32.66,68.85c21.77,16.44,50.59,24.65,86.46,24.65,21.34,0,40.56-3.2,57.64-9.61,17.07-6.41,31.27-15.47,42.59-27.22,7.16-7.43,12.55-15.57,16.55-24.29,1.42,10.01,3.82,18.67,7.47,25.57,5.97,11.32,14.51,19.21,25.62,23.7,11.1,4.48,23.69,6.73,37.78,6.73,5.97,0,11.85-.23,17.61-.65,5.76-.43,9.93-1.07,12.49-1.92v-59.56h-10.89ZM1463.89,432.66c0,17.51-3.63,32.67-10.89,45.47-7.26,12.81-17.51,22.84-30.74,30.1-13.24,7.26-29.04,10.89-47.39,10.89-16.23,0-28.72-3.62-37.46-10.89-8.76-7.26-13.13-17.5-13.13-30.74,0-11.95,3.94-21.66,11.85-29.14,7.9-7.47,21.02-13.13,39.39-16.97l88.38-17.93v19.21Z"/>
  </g>
  <path fill="#F5F5F5" d="M1902.63,283.77c-8.97-19.42-22.09-34.69-39.39-45.79-17.29-11.1-38.54-16.65-63.72-16.65-18.36,0-35.22,3.43-50.59,10.25-15.37,6.84-28.4,17.51-39.07,32.03-5.1,6.93-9.34,14.95-12.78,24.02l-1.95-58.6h-74.29v389.02h-436.05v-266.7c0-28.18-4.59-51.87-13.77-71.09-9.18-19.21-22.31-33.83-39.38-43.87-17.08-10.03-37.36-15.05-60.84-15.05-17.93,0-34.05,3.64-48.35,10.89-14.31,7.26-26.16,17.61-35.54,31.06-5.81,8.32-10.43,18.06-14.11,28.9-6.03-18.68-15.6-34.09-28.8-46.19-17.93-16.44-41.42-24.66-70.45-24.66-16.65,0-31.92,3.53-45.79,10.57-13.88,7.05-25.62,17.08-35.22,30.1-5.36,7.28-9.73,15.47-13.3,24.4l-1.75-57.38h-74.29v341.98h81.97v-195.97c0-18.36,2.66-34.04,8.01-47.07,5.33-13.02,12.59-22.94,21.77-29.78,9.18-6.82,20.38-10.25,33.62-10.25,20.91,0,35.64,7.48,44.19,22.41,8.53,14.95,12.81,36.51,12.81,64.69v195.97h76.21v-195.97c0-18.36,2.45-34.04,7.36-47.07,4.91-13.02,12.06-22.94,21.45-29.78,9.39-6.82,20.7-10.25,33.94-10.25,19.64,0,34.26,7.05,43.87,21.13,9.61,14.09,14.41,35.23,14.41,63.4v327.54h600v-322.41c0-29.03,6.51-51.23,19.53-66.61,13.02-15.37,30.42-23.05,52.2-23.05,14.51,0,26.15,3.52,34.9,10.57,8.74,7.05,15.05,17.19,18.89,30.42,3.84,13.24,5.77,29.46,5.77,48.67v193.41h81.97v-219.67c0-25.61-4.48-48.13-13.45-67.56Z"/>
</svg>
